<?xml version="1.0" encoding="UTF-8"?>
<!DOCTYPE svg PUBLIC "-//W3C//DTD SVG 1.1//EN" "http://www.w3.org/Graphics/SVG/1.1/DTD/svg11.dtd">
<!-- Creator: CorelDRAW 2019 (64-Bit) -->
<svg xmlns="http://www.w3.org/2000/svg" xml:space="preserve" width="12.2964mm" height="18.3995mm" version="1.1" style="shape-rendering:geometricPrecision; text-rendering:geometricPrecision; image-rendering:optimizeQuality; fill-rule:evenodd; clip-rule:evenodd"
viewBox="0 0 272.48 407.72"
 xmlns:xlink="http://www.w3.org/1999/xlink"
 xmlns:xodm="http://www.corel.com/coreldraw/odm/2003">
 <defs>
  <style type="text/css">
   <![CDATA[
    .fil24 {fill:#4FC3F7}
    .fil8 {fill:#618E3A}
    .fil15 {fill:#6E5147}
    .fil12 {fill:#81B54E}
    .fil21 {fill:#8D9193}
    .fil22 {fill:#97C861}
    .fil23 {fill:#ADADAD}
    .fil0 {fill:#B0230E}
    .fil19 {fill:#B1B1B1}
    .fil4 {fill:#C13A35}
    .fil7 {fill:#CB2A2A}
    .fil17 {fill:#D99F13}
    .fil20 {fill:#D9A017}
    .fil18 {fill:#D9A728}
    .fil16 {fill:#D9B344}
    .fil9 {fill:#E23832}
    .fil6 {fill:#E63E3A}
    .fil13 {fill:#EEEEEE}
    .fil3 {fill:#FECC3B}
    .fil1 {fill:#FF2100}
    .fil5 {fill:#FFB300}
    .fil14 {fill:#FFB505}
    .fil11 {fill:#FFBD19}
    .fil10 {fill:#FFBF1C}
    .fil25 {fill:#FFC107}
    .fil2 {fill:white}
   ]]>
  </style>
 </defs>
 <g id="Capa_x0020_1">
  <metadata id="CorelCorpID_0Corel-Layer"/>
  <path class="fil0" d="M136.24 0c-75.24,0 -136.24,61 -136.24,136.24 0,65.46 46.17,120.13 107.72,133.24 7.16,1.52 6.83,8.36 8.11,16.06l20.4 122.19 20.43 -122.29c1.34,-8.02 0.92,-14.4 8.42,-16.02 61.39,-13.23 107.4,-67.82 107.4,-133.17 0,-75.24 -61,-136.24 -136.24,-136.24z"/>
  <path class="fil1" d="M136.24 407.72l20.42 -122.29c1.34,-8.02 0.92,-14.4 8.42,-16.02 61.39,-13.23 107.4,-67.82 107.4,-133.17 0,-75.24 -61,-136.24 -136.24,-136.24l0 407.72z"/>
  <path class="fil2" d="M136.24 248.07c61.6,0 111.83,-50.24 111.83,-111.83 0,-61.59 -50.23,-111.83 -111.83,-111.83 -61.59,0 -111.83,50.24 -111.83,111.83 0,61.6 50.24,111.83 111.83,111.83z"/>
  <g id="_2493076976">
   <path class="fil3" d="M124.21 82.16c1.42,-0.21 13.74,-0.06 16.28,-0.06 4.33,0 11.26,-1.35 12.06,4.31 0.2,1.41 0.16,23.36 -0.05,24.38 -0.42,2.06 -2.07,3.66 -4.18,3.98 -1.38,0.21 -23.35,0.18 -24.41,-0.04 -2.02,-0.41 -3.69,-2.08 -3.99,-4.21 -0.21,-1.48 -0.05,-13.71 -0.05,-16.31 -0.01,-4.65 -1.32,-11.23 4.34,-12.06zm-45.91 34.87c0.27,0.95 2.08,2.14 2.8,2.88l3.08 2.59c1.62,1.32 4.77,3.69 6.71,4.78 -0.08,-5.92 0.76,-4.87 11.5,-4.86 3.6,0 31.35,-0.29 32.47,0.28 1.95,0.98 1.38,4.26 1.38,6.81 0,2.73 0.03,5.48 -0,8.2 2.99,0 8.44,-0.44 11.41,-0.88l3.7 -0.54c0.01,-1.95 -0,-3.9 0.01,-5.85 0.01,-2.08 0.54,-3.1 1.66,-4.15 2.15,-2.03 6.98,-1.33 10.46,-1.34 2.23,-0 15.66,-0.29 17.21,0.25 1.74,0.6 2.21,1.45 3.08,2.86 0.43,-0.17 0.43,-0.12 0.87,-0.39l7.53 -5.85c0.96,-0.84 2.99,-2.45 3.62,-3.41l-10.03 -8.8c-0.38,-0.31 -0.49,-0.37 -0.86,-0.72l-6.37 -5.59c-0.35,-0.32 -0.62,-0.46 -0.95,-0.79l-18.18 -15.84c-3.72,-3.17 -8.11,-7.28 -11.74,-10.29l-1.89 -1.59c-0.36,-0.32 -0.45,-0.47 -0.82,-0.75l-5.48 -4.76c-0.58,-0.56 -1.05,-1.03 -1.95,-1.37 -2.91,-1.08 -5.11,2.07 -7.72,4.13 -0.35,0.28 -0.47,0.47 -0.81,0.76 -1.25,1.06 -2.33,2.05 -3.62,3.16 -1.23,1.06 -2.38,1.99 -3.63,3.15 -0.35,0.33 -0.6,0.45 -0.95,0.78 -1.65,1.58 -4.91,4.16 -6.3,5.51l-36.19 31.64z"/>
   <path class="fil4" d="M135.43 55.68c1.36,-0.48 2.48,0.36 3.1,0.97l6.61 5.83c2.26,1.87 4.46,4.01 6.76,5.85l4.42 3.92c0.46,0.39 0.59,0.5 1.08,0.96 0.44,0.41 0.66,0.48 1.11,0.94 0.66,0.68 1.58,1.33 2.28,1.98 0.75,0.7 1.39,1.26 2.18,1.92 1.5,1.27 2.86,2.74 4.4,3.94 1.96,1.52 8.78,7.69 11.06,9.72l24.4 21.44c1.41,1.3 3.04,2.42 4.37,3.81 1.79,1.87 -0.16,4.76 -2.29,3.97 -1.17,-0.44 -5.36,-4.53 -6.79,-5.75l-6.69 -5.76c-2.58,-2.25 -6.68,-5.56 -8.95,-7.73l-20.1 -17.36c-0.47,-0.4 -0.63,-0.59 -1.1,-0.94l-9.97 -8.61c-1.17,-0.93 -2.17,-2.04 -3.35,-2.94 -0.49,-0.37 -0.62,-0.59 -1.08,-0.96l-4.47 -3.87c-3.48,-3.27 -7.58,-4.27 -11.37,-0.78l-13.4 11.63c-1.39,1.25 -3.14,2.52 -4.49,3.86l-16.74 14.43c-0.41,0.33 -0.66,0.64 -1.08,0.96l-17.91 15.45c-1.48,1.29 -3.06,2.54 -4.48,3.87l-4.45 3.9c-2.08,1.71 -4.41,-0.15 -3.83,-2.3 0.35,-1.32 5.17,-4.94 6.41,-6.12l4.47 -3.89c3.61,-3.01 7.44,-6.84 11.05,-9.74l13.21 -11.66c2.72,-2.17 7.39,-6.73 10.06,-8.83l2.15 -1.93c2.59,-2.01 6.33,-5.76 8.83,-7.71 2.83,-2.2 7.18,-6.53 10.01,-8.74 1.23,-0.96 3.09,-3.17 4.58,-3.7zm-64.68 67.98c0.2,-0.38 1.38,-1.32 1.8,-1.66 0.35,-0.28 0.54,-0.53 0.9,-0.83 0.37,-0.3 0.67,-0.67 1.04,-0.86 0.49,-0.54 1.3,-1.12 1.84,-1.61 0.41,-0.37 0.48,-0.49 0.91,-0.82 0.42,-0.32 0.62,-0.64 1.06,-0.86l36.19 -31.64c1.38,-1.35 4.65,-3.93 6.3,-5.51 0.35,-0.33 0.6,-0.46 0.95,-0.78 1.25,-1.16 2.39,-2.09 3.63,-3.15 1.29,-1.1 2.37,-2.09 3.62,-3.16 0.34,-0.29 0.46,-0.48 0.81,-0.76 2.61,-2.07 4.81,-5.21 7.72,-4.13 0.9,0.33 1.37,0.81 1.95,1.37l5.48 4.76c0.37,0.29 0.46,0.43 0.82,0.75l1.89 1.59c3.63,3.01 8.03,7.12 11.74,10.29l18.18 15.84c0.34,0.33 0.6,0.47 0.95,0.79l6.37 5.59c0.36,0.36 0.48,0.41 0.86,0.72l10.03 8.8c0.48,0.42 0.76,0.59 1.14,0.96 0.45,0.44 0.74,0.6 1.07,0.97 0.46,0.23 1.35,1.19 1.85,1.62 0.44,0.38 1.66,1.29 1.88,1.73 1.18,0.6 1.8,1.24 3.63,1.27 1.79,0.03 2.82,-0.42 3.88,-1.17 3.23,-2.32 3.53,-7.6 0.29,-10.08l-10.67 -9.33c-0.32,-0.27 -0.38,-0.26 -0.7,-0.56 -0.26,-0.25 -0.37,-0.39 -0.64,-0.62l-14.07 -12.22c-1.52,-1.35 -3.01,-2.79 -4.62,-4.04l-6.72 -5.88c-0.32,-0.3 -0.38,-0.29 -0.7,-0.56l-30 -26.21c-3.49,-3.27 -6.69,-3.23 -10.23,-0.08 -0.26,0.23 -0.37,0.39 -0.64,0.62l-12.73 11.04c-2.52,2.02 -4.76,4.41 -7.31,6.39 -1.86,1.44 -5.51,4.83 -7.42,6.44l-5.28 4.64c-0.47,0.47 -0.83,0.69 -1.34,1.18l-4.04 3.51c-1.46,1.13 -2.53,2.33 -3.96,3.44l-8.68 7.54c-0.27,0.23 -0.38,0.39 -0.64,0.62l-6.06 5.28c-0.32,0.3 -0.38,0.29 -0.7,0.56 -0.27,0.23 -0.38,0.39 -0.64,0.62l-6.69 5.75c-1.55,1.38 -3.37,2.65 -4.08,4.74 -1.39,4.09 1.62,8.4 6.01,8.38 1.99,-0.01 2.52,-0.63 3.79,-1.27z"/>
   <path class="fil5" d="M184.09 161.88l0.03 1.18c1.58,1.32 1.25,1.96 1.25,4.54 0,6.34 -0.13,5.2 -12.75,5.2 -1.4,0 -19.78,0.15 -20.69,-0.1 -0.92,-0.26 -1.12,-0.8 -1.67,-1.35 -0.72,0.39 -5.59,0.77 -6.78,0.76l-3.62 0.16c-1.44,-0 -2.25,0.16 -3.61,0.16l0 11.94c2.13,-0.03 3.25,-0.19 4.39,1.2 1.12,1.37 0.48,3.23 0.72,5.1 3.12,0.23 3.5,-0.12 4.84,2.3l51.76 -0.01 -0.02 -38.47 -6.8 3.93c-0.57,0.34 -1.16,0.56 -1.77,0.9 -0.84,0.47 -4.59,2.4 -5.28,2.57z"/>
   <path class="fil6" d="M94.99 184.35l37.16 0c0.5,-1.81 0.22,-10.86 0.24,-13.45 0.03,-4.53 0.1,-9.11 0.06,-13.64l-0.16 0.2c-0.12,0.14 -0.15,0.18 -0.23,0.27 -0.87,0.97 -2.04,2.03 -3.43,2.2l0.1 18.37c0.01,2.75 -1.65,2.09 -4.13,2.07 -4.09,-0.02 -8.19,-0 -12.28,-0 -15.48,0 -13.89,1.3 -13.87,-4.59l0.1 -18.43c0,-2.76 1.27,-2.1 3.85,-2.09l18.57 0.01c-0.3,-2.4 -0.05,-2.76 0.82,-4.66 0.61,-1.32 1.25,-1.97 2.91,-2.65 2.28,-0.93 4.53,-0.43 6.31,1.1l1.18 1.21c0.03,0.03 0.07,0.06 0.1,0.09l0.28 -22.61c0.01,-2.84 -0.17,-2.34 -5.44,-2.36 -10.18,-0.05 -20.38,-0.1 -30.55,0 -2.49,0.02 -1.97,0.68 -1.96,5.67l0.15 38.1c0.02,2.8 -0.28,13.3 0.25,15.19z"/>
   <path class="fil7" d="M126.24 150.26c4.88,-1.18 6.43,6.11 1.83,7.28 -4.89,1.25 -6.82,-6.08 -1.83,-7.28zm-35.35 -22.99l-0.01 29.75 0.01 21.92c0.68,0.63 1.64,1.53 2.2,2.36 0.27,0.4 0.59,0.9 0.83,1.38 0.29,0.59 0.42,1.13 0.74,1.64l0.33 0.03c-0.53,-1.89 -0.23,-12.39 -0.25,-15.19l-0.15 -38.1c-0.01,-4.98 -0.53,-5.64 1.96,-5.67 10.18,-0.1 20.38,-0.05 30.55,0 5.27,0.02 5.45,-0.48 5.44,2.36l-0.28 22.61c-0.03,-0.03 -0.07,-0.06 -0.1,-0.09l-1.18 -1.21c-1.77,-1.54 -4.02,-2.03 -6.31,-1.1 -1.66,0.68 -2.3,1.33 -2.91,2.65 -0.87,1.9 -1.13,2.26 -0.82,4.66l-18.57 -0.01c-2.58,-0.01 -3.85,-0.67 -3.85,2.09l-0.1 18.43c-0.02,5.89 -1.62,4.59 13.87,4.59 4.09,0 8.19,-0.01 12.28,0 2.48,0.01 4.14,0.67 4.13,-2.07l-0.1 -18.37c1.39,-0.16 2.57,-1.23 3.43,-2.2 0.09,-0.1 0.12,-0.13 0.23,-0.27l0.16 -0.2c0.04,4.53 -0.03,9.11 -0.06,13.64 -0.02,2.59 0.26,11.64 -0.24,13.45l4.11 -0 -0 -11.94 -0.01 -34.72c0.03,-2.73 0,-5.47 0,-8.2 0,-2.55 0.57,-5.83 -1.38,-6.81 -1.12,-0.56 -28.87,-0.27 -32.47,-0.28 -10.73,-0 -11.58,-1.06 -11.5,4.86z"/>
   <path class="fil8" d="M74.44 189.48c-0.31,-2.52 1.19,-4.65 2.23,-6.19 1.15,-1.7 2.32,-3.02 4.74,-3.79 5.28,-1.68 9.53,1.81 10.74,5.41 -1.15,1.13 -2.87,0.41 -4.93,5.29 -1.59,0.1 -5.12,0.7 -5.3,1.95 -0.17,2.63 2.4,1.06 2.86,0.92 3.82,-1.23 5.72,0.16 6.65,0.25 0.69,0.07 1.23,-0.44 1.28,-1.04 0.1,-1.09 -1.05,-1.36 -1.97,-1.62l-0.71 -0.25c-0.02,-0.01 -0.09,-0.02 -0.1,-0.07 -0.02,-0.05 -0.07,-0.04 -0.1,-0.07 0.79,-2.22 2.35,-2.95 5.25,-3.3 4.86,-0.58 9.19,1.84 10.09,6.84 0.54,3 -0.45,4.99 -1.52,6.69l-39.94 -0.03c-1.62,-2.99 1.41,-2.79 0.61,-5.33 -0.52,-1.65 -1.54,-2.79 -0.28,-5.91 1.23,-3.06 4.44,-5.66 9.07,-5.23 0.21,0.91 -2.35,5.47 -0.36,6.16 0.41,0.14 0.6,0.13 0.98,-0.07l0.73 -0.6zm0.07 -7.66c-1.44,-0.22 -2.24,-0.31 -3.77,-0.21 -4.95,-0.1 -11.43,6.39 -9.54,12.69 0.28,0.94 0.77,1.2 0.3,1.98 -0.38,0.64 -0.76,1.13 -0.83,2.02 -0.17,2.09 0.43,3.42 1.54,4.28 0.95,0.73 4.03,0.44 5.38,0.44 48.08,0 96.15,0 144.23,0 0,-1.68 0,-3.36 0.01,-5.04 0,-2.87 -2.17,-5.04 -5.04,-5.04 -1.68,0 -3.36,0 -5.04,0l-3.78 0 -51.76 0.01c0.31,1.64 0.12,4.5 -0.05,6.27l-38.91 -0 0.31 -1.33c0.52,-2.49 0.21,-3.67 -0.33,-5.96 -0.24,-0.59 -0.39,-1.07 -0.68,-1.59 -0.31,-0.56 -0.61,-0.92 -0.84,-1.46 -0.5,-0.39 -1.23,-1.26 -1.77,-1.75 -0.77,-0.69 -1.24,-0.86 -2.01,-1.42 -1.03,-0.5 -2.14,-0.92 -3.4,-1.17 -0.7,-0.14 -1.41,-0.18 -2.13,-0.15 -0.41,0.01 -0.68,0.08 -1.06,0.12 -0.5,0.06 -0.69,0.28 -0.68,-0.18 -0.32,-0.51 -0.45,-1.05 -0.74,-1.64 -0.24,-0.48 -0.56,-0.98 -0.83,-1.38 -0.55,-0.83 -1.51,-1.73 -2.2,-2.36 -1.44,-0.76 -2.03,-1.43 -4.04,-1.95 -1.69,-0.44 -3.57,-0.49 -5.27,-0.1 -1.73,0.4 -2.83,0.99 -4.09,1.87 -1.59,1.11 -1.96,2 -2.62,2.73 -0.37,0.41 -0,0.1 -0.37,0.32z"/>
   <path class="fil9" d="M135.43 55.68c-1.49,0.52 -3.35,2.74 -4.58,3.7 -2.83,2.2 -7.18,6.53 -10.01,8.74 -2.5,1.95 -6.24,5.69 -8.83,7.71l-2.15 1.93c-2.67,2.11 -7.35,6.66 -10.06,8.83l-13.21 11.66c-3.61,2.89 -7.44,6.73 -11.05,9.74l-4.47 3.89c-1.24,1.17 -6.06,4.8 -6.41,6.12 -0.57,2.15 1.76,4.02 3.83,2.3l4.45 -3.9c1.42,-1.33 3,-2.58 4.48,-3.87l17.91 -15.45c0.42,-0.32 0.67,-0.63 1.08,-0.96l16.74 -14.43c1.35,-1.34 3.1,-2.6 4.49,-3.86l13.4 -11.63c3.79,-3.49 7.89,-2.49 11.37,0.78l4.47 3.87c0.46,0.38 0.59,0.59 1.08,0.96 1.18,0.9 2.18,2.02 3.35,2.94l9.97 8.61c0.47,0.36 0.63,0.54 1.1,0.94l20.1 17.36c2.27,2.17 6.37,5.48 8.95,7.73l6.69 5.76c1.43,1.22 5.62,5.32 6.79,5.75 2.13,0.79 4.08,-2.09 2.29,-3.97 -1.33,-1.39 -2.96,-2.51 -4.37,-3.81l-24.4 -21.44c-2.28,-2.03 -9.1,-8.2 -11.06,-9.72 -1.54,-1.2 -2.9,-2.67 -4.4,-3.94 -0.78,-0.66 -1.42,-1.22 -2.18,-1.92 -0.7,-0.65 -1.62,-1.3 -2.28,-1.98 -0.45,-0.46 -0.67,-0.53 -1.11,-0.94 -0.5,-0.46 -0.62,-0.57 -1.08,-0.96l-4.42 -3.92c-2.3,-1.84 -4.5,-3.98 -6.76,-5.85l-6.61 -5.83c-0.62,-0.61 -1.74,-1.45 -3.1,-0.97z"/>
   <path class="fil10" d="M136.24 137.69l0.01 34.72c1.35,0 2.17,-0.16 3.61,-0.16l3.62 -0.16c1.19,0 6.05,-0.37 6.78,-0.76 -0.16,-1.6 -0.16,-2.99 -0.16,-4.68 -0,-0.69 -0.08,-1.58 0.14,-2.22 0.28,-0.81 0.64,-0.92 1.07,-1.37l0.04 -26.78 -3.7 0.54c-2.97,0.44 -8.41,0.88 -11.41,0.88z"/>
   <path class="fil10" d="M74.49 120.32l0.04 27.57 5.8 3.65c0.73,0.44 1.39,0.77 2.11,1.2 0.7,0.43 7.58,4.06 8.45,4.28l0.01 -29.75c-1.94,-1.08 -5.08,-3.46 -6.71,-4.78l-3.08 -2.59c-0.72,-0.74 -2.53,-1.93 -2.8,-2.88 -0.43,0.22 -0.64,0.54 -1.06,0.86 -0.44,0.33 -0.5,0.45 -0.91,0.82 -0.54,0.49 -1.35,1.07 -1.84,1.61z"/>
   <path class="fil11" d="M183.77 128.05c0.59,2.51 0.34,5.51 0.34,8.21 0,2.83 0,5.67 -0.01,8.5 -0.01,5.7 0.02,11.41 -0.01,17.11 0.69,-0.17 4.45,-2.1 5.28,-2.57 0.61,-0.34 1.2,-0.56 1.77,-0.9l6.8 -3.93 0.05 -34.16c-0.33,-0.37 -0.62,-0.53 -1.07,-0.97 -0.38,-0.37 -0.66,-0.54 -1.14,-0.96 -0.63,0.96 -2.65,2.57 -3.62,3.41l-7.53 5.85c-0.44,0.27 -0.43,0.22 -0.87,0.39z"/>
   <path class="fil12" d="M81.9 192.16c-1.66,0.05 -3.06,-0.39 -4.34,-0.83 -0.63,-0.21 -1.25,-0.48 -1.79,-0.73 -1.52,-0.7 -1.3,-0.69 -1.33,-1.12l-0.73 0.6c-0.38,0.2 -0.57,0.21 -0.98,0.07 -1.99,-0.68 0.57,-5.25 0.36,-6.16 -4.63,-0.42 -7.84,2.18 -9.07,5.23 -1.26,3.12 -0.24,4.26 0.28,5.91 0.8,2.54 -2.23,2.34 -0.61,5.33l39.94 0.03c1.07,-1.7 2.06,-3.69 1.52,-6.69 -0.91,-5 -5.24,-7.43 -10.09,-6.84 -2.91,0.35 -4.46,1.08 -5.25,3.3 0.03,0.03 0.09,0.02 0.1,0.07 0.02,0.05 0.08,0.06 0.1,0.07l0.71 0.25c0.92,0.26 2.07,0.53 1.97,1.62 -0.06,0.6 -0.59,1.11 -1.28,1.04 -0.92,-0.09 -2.83,-1.48 -6.65,-0.25 -0.47,0.15 -3.03,1.72 -2.86,-0.92z"/>
   <path class="fil13" d="M168.99 142.56l10.08 0 0 10.08 -10.08 0 0 -10.08zm-12.6 0l10.08 0 0 10.08 -10.08 0 0 -10.08zm12.6 -12.6l10.08 0 0 10.08 -10.08 0 0 -10.08zm-12.6 0l10.08 0 0 10.08 -10.08 0 0 -10.08zm-2.51 32.75l2.51 0 0 -7.56 10.08 0 0 7.56 2.52 0 0 -7.56 10.08 0 0 7.56 2.5 0 0.02 -30.7c0,-2.19 0.12,-3.79 -1.71,-4.43 -0.74,-0.26 -23.56,-0.26 -24.3,-0.01 -1.83,0.64 -1.72,2.24 -1.72,4.44l0.02 30.7z"/>
   <path class="fil14" d="M74.51 181.82c0.37,-0.23 0,0.09 0.37,-0.32 0.66,-0.73 1.03,-1.62 2.62,-2.73 1.26,-0.88 2.36,-1.48 4.09,-1.87 1.69,-0.39 3.58,-0.34 5.27,0.1 2,0.52 2.59,1.19 4.04,1.95l-0.01 -21.92c-0.87,-0.22 -7.74,-3.86 -8.45,-4.28 -0.72,-0.43 -1.38,-0.76 -2.11,-1.2l-5.8 -3.65 -0.02 33.93z"/>
   <path class="fil13" d="M137.5 99.73l10.08 0 0 10.08 -10.08 0 0 -10.08zm-12.6 0l10.08 0 0 10.08 -10.08 0 0 -10.08zm12.6 -12.6l10.08 0 0 10.08 -10.08 0 0 -10.08zm-12.6 0l10.08 0 0 10.08 -10.08 0 0 -10.08zm-0.63 -2.42c-2.2,0.66 -1.89,2.64 -1.89,5.1 0,3.41 -0.2,19.63 0.11,20.69 0.59,2.05 2.77,1.83 5.09,1.83 3.44,0 19.59,0.21 20.69,-0.1 2.06,-0.59 1.83,-2.78 1.83,-5.09 0,-3.45 0.22,-19.58 -0.1,-20.69 -0.58,-2.07 -2.78,-1.83 -5.1,-1.83 -3.35,0 -19.65,-0.19 -20.63,0.1z"/>
   <path class="fil15" d="M151.31 163.06c-0.42,0.45 -0.78,0.56 -1.07,1.37 -0.22,0.64 -0.15,1.53 -0.14,2.22 0,1.69 0,3.09 0.16,4.68 0.55,0.55 0.75,1.09 1.67,1.35 0.9,0.25 19.29,0.1 20.69,0.1 12.63,0 12.75,1.15 12.75,-5.2 0,-2.58 0.33,-3.22 -1.25,-4.54 -0.91,-0.39 -1.44,-0.35 -2.55,-0.34l-2.5 0 -10.08 0 -2.52 0 -10.08 0 -2.51 0c-1.15,0 -1.63,-0.03 -2.58,0.34z"/>
   <path class="fil16" d="M124.27 84.71c0.98,-0.29 17.28,-0.1 20.63,-0.1 2.32,0 4.52,-0.24 5.1,1.83 0.31,1.11 0.1,17.24 0.1,20.69 -0,2.31 0.23,4.5 -1.83,5.09 -1.09,0.31 -17.24,0.1 -20.69,0.1 -2.31,0 -4.5,0.23 -5.09,-1.83 -0.31,-1.06 -0.11,-17.27 -0.11,-20.69 0,-2.46 -0.31,-4.44 1.89,-5.1zm-0.06 -2.55c-5.66,0.83 -4.35,7.41 -4.34,12.06 0,2.6 -0.16,14.83 0.05,16.31 0.3,2.13 1.97,3.8 3.99,4.21 1.06,0.21 23.03,0.24 24.41,0.04 2.12,-0.32 3.76,-1.92 4.18,-3.98 0.21,-1.02 0.25,-22.98 0.05,-24.38 -0.8,-5.65 -7.74,-4.31 -12.06,-4.31 -2.54,0 -14.86,-0.15 -16.28,0.06z"/>
   <path class="fil17" d="M197.95 154.47l0.02 38.47 3.78 0 -0.01 -69.28c-0.22,-0.44 -1.44,-1.35 -1.88,-1.73 -0.5,-0.42 -1.39,-1.38 -1.85,-1.62l-0.05 34.16z"/>
   <path class="fil18" d="M151.35 136.28l-0.04 26.78c0.95,-0.37 1.43,-0.34 2.58,-0.34l-0.02 -30.7c-0,-2.2 -0.12,-3.8 1.72,-4.44 0.74,-0.26 23.55,-0.25 24.3,0.01 1.83,0.64 1.72,2.24 1.71,4.43l-0.02 30.7c1.11,-0 1.64,-0.05 2.55,0.34l-0.03 -1.18c0.03,-5.7 0,-11.41 0.01,-17.11 0.01,-2.83 0.01,-5.67 0.01,-8.5 0,-2.71 0.25,-5.7 -0.34,-8.21 -0.86,-1.41 -1.34,-2.26 -3.08,-2.86 -1.56,-0.54 -14.98,-0.25 -17.21,-0.25 -3.48,0 -8.31,-0.69 -10.46,1.34 -1.12,1.06 -1.65,2.08 -1.66,4.15 -0.01,1.95 -0,3.9 -0.01,5.85z"/>
   <path class="fil19" d="M107.56 197.89l37.42 0c0.45,-5.6 0.75,-6.02 -4.8,-6.02 -4.54,0 -30.81,-0.19 -32.94,0.06 0.53,2.29 0.85,3.47 0.33,5.96z"/>
   <path class="fil20" d="M70.75 123.66l-0.01 57.95c1.53,-0.1 2.32,-0.01 3.77,0.21l0.02 -33.93 -0.04 -27.57c-0.37,0.2 -0.68,0.56 -1.04,0.86 -0.36,0.29 -0.55,0.55 -0.9,0.83 -0.42,0.34 -1.6,1.28 -1.8,1.66z"/>
   <path class="fil21" d="M101.93 185.71c0.32,-0.19 0.75,-0.15 1.24,-0.15l29.92 0c6.65,0 7.05,-0.7 6.84,3.47 -1.46,0 -3.83,0.18 -5.12,-0.21 -0.93,-0.29 -0.18,0.03 -1.25,0.2 -1.38,0.22 -5.28,0.01 -6.92,0.01 -0.03,-0.03 -0.06,-0.07 -0.08,-0.09 -0.02,-0.02 -0.06,-0.07 -0.08,-0.09l-0.16 -0.17c-0.34,-0.31 -0.73,-0.43 -1.26,-0.42 -1.17,0.01 -1.29,0.8 -1.34,0.68 -0.01,-0.03 -0.05,0.06 -0.08,0.09 -0.67,0 -1.61,0.11 -2.08,-0.15 -0.08,-0.04 -1.77,-1.5 -2.93,-1.11 -0.78,0.26 -0.08,0.85 0.16,1.26 -0.87,0 -1.86,0.05 -2.71,0.02 -1.55,-0.06 -0.43,-0.58 -1.88,-0.66 -0.47,-0.03 -0.89,0.02 -1.21,0.19 -0.81,0.44 0.18,0.29 -0.83,0.45 -0.5,0.08 -1.93,0 -2.52,0l-0.04 -0.39c-0.04,-0.28 0.03,-0.17 -0.07,-0.47 -2.89,-0.78 -1.99,1.41 -3.8,0.69 0.22,0.54 0.53,0.9 0.84,1.46 0.29,0.52 0.44,0.99 0.68,1.59 2.13,-0.24 28.41,-0.06 32.94,-0.06 5.55,0 5.25,0.42 4.8,6.02l-37.42 0 -0.31 1.33 38.91 0c0.17,-1.76 0.36,-4.62 0.05,-6.27 -1.34,-2.43 -1.72,-2.07 -4.84,-2.3 -0.24,-1.87 0.4,-3.73 -0.72,-5.1 -1.14,-1.39 -2.26,-1.22 -4.39,-1.2l-4.11 0 -37.16 0 -0.33 -0.03c-0.01,0.47 0.18,0.24 0.68,0.18 0.38,-0.04 0.64,-0.1 1.06,-0.12 0.71,-0.03 1.43,0.02 2.13,0.15 1.26,0.25 2.37,0.67 3.4,1.17z"/>
   <path class="fil22" d="M74.44 189.48c0.04,0.43 -0.19,0.42 1.33,1.12 0.54,0.25 1.16,0.52 1.79,0.73 1.29,0.44 2.68,0.88 4.34,0.83 0.18,-1.25 3.72,-1.85 5.3,-1.95 2.07,-4.87 3.79,-4.15 4.93,-5.29 -1.21,-3.61 -5.46,-7.1 -10.74,-5.41 -2.42,0.77 -3.59,2.09 -4.74,3.79 -1.04,1.54 -2.54,3.67 -2.23,6.19z"/>
   <path class="fil23" d="M105.72 188.88c1.81,0.72 0.91,-1.47 3.8,-0.69 0.1,0.29 0.03,0.18 0.07,0.47l0.04 0.39c0.6,0 2.02,0.08 2.52,-0 1.01,-0.16 0.02,-0.01 0.83,-0.45 0.32,-0.18 0.74,-0.22 1.21,-0.19 1.45,0.08 0.32,0.6 1.88,0.66 0.85,0.03 1.84,-0.02 2.71,-0.02 -0.23,-0.41 -0.94,-0.99 -0.16,-1.26 1.16,-0.39 2.86,1.07 2.93,1.11 0.47,0.25 1.42,0.15 2.08,0.15 0.03,-0.03 0.06,-0.12 0.08,-0.09 0.06,0.12 0.18,-0.67 1.34,-0.68 0.53,-0.01 0.92,0.11 1.26,0.42l0.16 0.17c0.02,0.02 0.06,0.07 0.08,0.09 0.02,0.02 0.05,0.06 0.08,0.09 1.65,0 5.54,0.21 6.92,-0.01 1.07,-0.17 0.32,-0.49 1.25,-0.2 1.29,0.4 3.66,0.21 5.12,0.21 0.21,-4.17 -0.18,-3.47 -6.84,-3.47l-29.92 -0c-0.49,-0 -0.92,-0.05 -1.24,0.15 0.77,0.56 1.25,0.73 2.01,1.42 0.54,0.49 1.27,1.36 1.77,1.75z"/>
   <polygon class="fil24" points="124.9,97.21 134.98,97.21 134.98,87.13 124.9,87.13 "/>
   <polygon class="fil24" points="137.5,97.21 147.58,97.21 147.58,87.13 137.5,87.13 "/>
   <polygon class="fil24" points="124.9,109.81 134.98,109.81 134.98,99.73 124.9,99.73 "/>
   <polygon class="fil24" points="137.5,109.81 147.58,109.81 147.58,99.73 137.5,99.73 "/>
   <polygon class="fil24" points="168.99,152.64 179.07,152.64 179.07,142.56 168.99,142.56 "/>
   <polygon class="fil24" points="168.99,140.04 179.07,140.04 179.07,129.96 168.99,129.96 "/>
   <polygon class="fil24" points="156.39,152.64 166.47,152.64 166.47,142.56 156.39,142.56 "/>
   <polygon class="fil24" points="156.39,140.04 166.47,140.04 166.47,129.96 156.39,129.96 "/>
   <polygon class="fil24" points="168.99,162.71 179.07,162.71 179.07,155.15 168.99,155.15 "/>
   <polygon class="fil24" points="156.39,162.71 166.47,162.71 166.47,155.15 156.39,155.15 "/>
   <path class="fil25" d="M126.24 150.26c-4.99,1.21 -3.05,8.53 1.83,7.28 4.59,-1.17 3.05,-8.46 -1.83,-7.28z"/>
  </g>
 </g>
</svg>
