<?xml version="1.0" encoding="UTF-8"?>
<!DOCTYPE svg PUBLIC "-//W3C//DTD SVG 1.1//EN" "http://www.w3.org/Graphics/SVG/1.1/DTD/svg11.dtd">
<!-- Creator: CorelDRAW 2019 (64-Bit) -->
<svg xmlns="http://www.w3.org/2000/svg" xml:space="preserve" width="18.8299mm" height="19.2603mm" version="1.1" style="shape-rendering:geometricPrecision; text-rendering:geometricPrecision; image-rendering:optimizeQuality; fill-rule:evenodd; clip-rule:evenodd"
viewBox="0 0 112.83 115.4"
 xmlns:xlink="http://www.w3.org/1999/xlink"
 xmlns:xodm="http://www.corel.com/coreldraw/odm/2003">
 <defs>
  <style type="text/css">
   <![CDATA[
    .fil4 {fill:#22272B;fill-rule:nonzero}
    .fil3 {fill:#2C3135;fill-rule:nonzero}
    .fil7 {fill:#382A2A;fill-rule:nonzero}
    .fil17 {fill:#3D2A2D;fill-rule:nonzero}
    .fil31 {fill:#3D494C;fill-rule:nonzero}
    .fil6 {fill:#43484C;fill-rule:nonzero}
    .fil24 {fill:#493336;fill-rule:nonzero}
    .fil8 {fill:#4C3C3B;fill-rule:nonzero}
    .fil1 {fill:#523E41;fill-rule:nonzero}
    .fil23 {fill:#555E63;fill-rule:nonzero}
    .fil26 {fill:#576366;fill-rule:nonzero}
    .fil15 {fill:#576F91;fill-rule:nonzero}
    .fil29 {fill:#604B50;fill-rule:nonzero}
    .fil30 {fill:#6C83A8;fill-rule:nonzero}
    .fil25 {fill:#737E82;fill-rule:nonzero}
    .fil28 {fill:#7D676B;fill-rule:nonzero}
    .fil2 {fill:#8E979B;fill-rule:nonzero}
    .fil22 {fill:#A0ADAF;fill-rule:nonzero}
    .fil21 {fill:#AAB7BA;fill-rule:nonzero}
    .fil12 {fill:#ACB9BC;fill-rule:nonzero}
    .fil5 {fill:#B2462D;fill-rule:nonzero}
    .fil14 {fill:#BECACC;fill-rule:nonzero}
    .fil16 {fill:#CED8DB;fill-rule:nonzero}
    .fil9 {fill:#D1CABF;fill-rule:nonzero}
    .fil27 {fill:#DD8D36;fill-rule:nonzero}
    .fil0 {fill:#E1CBA9;fill-rule:nonzero}
    .fil20 {fill:#E1CBA9;fill-rule:nonzero}
    .fil13 {fill:#E1E8EA;fill-rule:nonzero}
    .fil10 {fill:#E2DACF;fill-rule:nonzero}
    .fil18 {fill:#E9F0F2;fill-rule:nonzero}
    .fil19 {fill:#FF0856;fill-rule:nonzero}
    .fil11 {fill:#FF0856;fill-rule:nonzero}
   ]]>
  </style>
 </defs>
 <g id="Capa_x0020_1">
  <metadata id="CorelCorpID_0Corel-Layer"/>
  <polygon class="fil0" points="82.26,27.13 35.21,0 2.53,18.64 49.58,45.77 "/>
  <path class="fil1" d="M110.07 68.24l-0.14 -0.25 -0.29 0 -1.44 0.83c-0.37,0.21 -0.59,0.6 -0.59,1.02l0 3.75 0.16 0.28 0.31 0 1.8 -1.04 0.19 -0.34 0 -4.25z"/>
  <path class="fil1" d="M110.34 68.36l-0.15 -0.25 -0.29 0 -1.45 0.83c-0.36,0.21 -0.59,0.6 -0.59,1.02l0 3.75 0.16 0.27 0.32 0 1.8 -1.04 0.2 -0.34 0 -4.25z"/>
  <path class="fil1" d="M109.55 68.69l-0.35 0c0,-0.64 -0.15,-1.05 -0.44,-1.22 -0.4,-0.25 -1.13,-0.09 -2.18,0.45l-0.16 -0.31c1.18,-0.61 2,-0.75 2.52,-0.44 0.41,0.25 0.6,0.75 0.6,1.52z"/>
  <polygon class="fil2" points="70.38,93.22 62.58,97.87 62.58,103.23 70.38,98.57 "/>
  <polygon class="fil3" points="14.47,69.24 12.68,68.2 12.68,73.86 13.83,74.48 21.24,70.83 "/>
  <polygon class="fil4" points="58.6,97.61 23.22,77.18 23.22,78.73 58.6,99.16 "/>
  <polygon class="fil4" points="78.74,89.83 43.36,69.4 28.22,75.12 63.6,95.54 "/>
  <polygon class="fil3" points="35.97,82.84 21.57,74.53 21.57,79.98 35.97,88.29 "/>
  <polygon class="fil4" points="43.54,84.27 18.76,69.96 18.42,75.21 43.19,89.51 "/>
  <polygon class="fil5" points="13.2,71.41 12.31,70.9 12.31,73.67 13.21,74.19 "/>
  <polygon class="fil4" points="25.98,73.35 21.05,73.28 21.49,82.15 25.93,79.51 "/>
  <polygon class="fil6" points="21.61,75.07 19.34,73.76 19.34,80.86 21.61,82.17 "/>
  <polygon class="fil4" points="40.74,82.13 35.81,82.06 36.25,90.92 40.69,88.29 "/>
  <path class="fil7" d="M34.55 87.78c0,-3.01 -2.13,-6.68 -4.75,-8.19 -1.48,-0.85 -2.8,-0.84 -3.67,-0.12 -0.34,0.11 -0.63,0.3 -0.88,0.56 -1.12,0.35 -1.84,1.49 -1.84,3.24 0,3.01 2.13,6.68 4.75,8.19 1.59,0.91 2.99,0.83 3.85,-0.04 0.28,-0.09 0.54,-0.22 0.76,-0.41 1.08,-0.37 1.78,-1.5 1.78,-3.22z"/>
  <path class="fil8" d="M32.04 89.26c0,-3.01 -2.13,-6.68 -4.75,-8.19 -2.62,-1.52 -4.75,-0.3 -4.75,2.71 0,3.01 2.13,6.68 4.75,8.19 2.62,1.51 4.75,0.3 4.75,-2.71z"/>
  <path class="fil9" d="M30.49 88.35c0,-2 -1.42,-4.45 -3.16,-5.45 -1.75,-1.01 -3.16,-0.2 -3.16,1.8 0,2 1.41,4.44 3.16,5.45 1.74,1.01 3.16,0.2 3.16,-1.8z"/>
  <path class="fil7" d="M27.92 83.92c0,-0.39 -0.18,-0.81 -0.41,-0.94 -0.23,-0.13 -0.42,0.07 -0.42,0.46 0,0.39 0.19,0.81 0.42,0.94 0.23,0.13 0.41,-0.07 0.41,-0.46z"/>
  <path class="fil7" d="M27.92 89.33c0,-0.39 -0.18,-0.81 -0.41,-0.94 -0.23,-0.13 -0.42,0.07 -0.42,0.46 0,0.39 0.19,0.81 0.42,0.94 0.23,0.13 0.41,-0.07 0.41,-0.46z"/>
  <path class="fil7" d="M29.87 88.22c0.34,0.19 0.61,0.14 0.61,-0.12 0,-0.26 -0.27,-0.64 -0.61,-0.83 -0.34,-0.2 -0.61,-0.14 -0.62,0.12 0,0.26 0.28,0.64 0.62,0.83z"/>
  <path class="fil7" d="M25.15 85.5c0.34,0.2 0.61,0.14 0.61,-0.12 0,-0.26 -0.27,-0.64 -0.61,-0.83 -0.34,-0.19 -0.62,-0.14 -0.62,0.13 0,0.26 0.27,0.64 0.62,0.83z"/>
  <path class="fil7" d="M28.88 89.43c0.24,0.41 0.57,0.67 0.73,0.58 0.16,-0.09 0.1,-0.51 -0.14,-0.91 -0.24,-0.41 -0.56,-0.67 -0.73,-0.58 -0.16,0.09 -0.1,0.5 0.14,0.91z"/>
  <path class="fil7" d="M25.54 83.67c0.24,0.41 0.56,0.67 0.73,0.58 0.16,-0.09 0.1,-0.5 -0.14,-0.91 -0.24,-0.41 -0.56,-0.67 -0.73,-0.58 -0.16,0.09 -0.1,0.5 0.14,0.92z"/>
  <path class="fil7" d="M25.54 86.83c-0.24,0.14 -0.3,0.48 -0.14,0.75 0.16,0.28 0.49,0.4 0.73,0.26 0.24,-0.14 0.3,-0.47 0.14,-0.75 -0.16,-0.28 -0.49,-0.4 -0.73,-0.26z"/>
  <path class="fil7" d="M28.88 84.92c-0.24,0.14 -0.3,0.47 -0.14,0.75 0.16,0.28 0.49,0.4 0.73,0.26 0.24,-0.14 0.3,-0.47 0.14,-0.75 -0.16,-0.28 -0.49,-0.4 -0.73,-0.26z"/>
  <path class="fil8" d="M28.86 87.18c0,-0.86 -0.61,-1.92 -1.37,-2.35 -0.75,-0.44 -1.36,-0.09 -1.36,0.78 0,0.86 0.61,1.92 1.36,2.35 0.75,0.43 1.37,0.09 1.37,-0.78z"/>
  <path class="fil10" d="M28.43 87.28c0,-0.78 -0.55,-1.72 -1.22,-2.11 -0.67,-0.39 -1.22,-0.08 -1.22,0.7 0,0.78 0.55,1.72 1.22,2.11 0.67,0.39 1.22,0.08 1.22,-0.7z"/>
  <polygon class="fil6" points="36.28,84.08 34.01,82.77 34.01,89.61 36.28,90.92 "/>
  <polygon class="fil6" points="59.09,95.83 14.55,70.12 14.72,71.76 59.26,97.47 "/>
  <polygon class="fil3" points="58.95,95.25 14.71,69.71 14.68,70.92 58.92,96.47 "/>
  <polygon class="fil11" points="83.57,30.27 49.96,49.7 49.09,70.47 50.24,91.63 83.57,72.3 "/>
  <polygon class="fil12" points="111.95,87.69 84.17,103.8 81.61,113.83 109.39,97.71 "/>
  <polygon class="fil13" points="104.47,93.55 92.03,100.77 90.42,107.59 102.87,100.37 "/>
  <polygon class="fil14" points="111.9,85.43 84.12,101.54 84.12,104.05 111.89,87.93 "/>
  <polygon class="fil15" points="111.9,86.91 84.12,103.03 84.12,104.09 111.89,87.98 "/>
  <polygon class="fil16" points="104.5,61.08 76.72,77.19 84.12,101.55 111.89,85.43 "/>
  <polygon class="fil17" points="104.5,65.88 78.91,80.43 84.64,98.4 110.23,83.86 "/>
  <polygon class="fil18" points="85.52,50.08 57.74,66.2 76.78,77.33 104.56,61.21 "/>
  <polygon class="fil14" points="85.52,50.08 57.74,66.2 74.05,69.99 96.99,56.71 "/>
  <polygon class="fil19" points="50.16,48.83 8.11,24.11 0.04,20.58 0.04,62.67 50.23,91.64 50.23,49.61 "/>
  <polygon class="fil20" points="0.04,43.57 0.04,47.92 50.23,77.42 50.23,73.07 "/>
  <polygon class="fil20" points="0.04,39.79 0.04,41.54 50.23,71.05 50.23,69.29 "/>
  <polygon class="fil20" points="49.65,45.69 2.66,18.59 -0,20.58 50.34,49.6 "/>
  <polygon class="fil21" points="88.95,56.93 80.17,48.96 63.23,58.81 72.49,68.33 89.43,58.59 "/>
  <polygon class="fil22" points="88.95,56.93 80.17,48.96 63.23,58.81 89.43,58.59 "/>
  <polygon class="fil4" points="61.06,83.43 54.61,79.7 54.61,93.14 61.06,96.86 "/>
  <polygon class="fil23" points="61.32,84.23 55.39,80.81 55.4,93.15 61.32,96.57 "/>
  <polygon class="fil4" points="70.29,78.51 63.84,74.78 54.58,79.74 61.03,83.47 "/>
  <path class="fil7" d="M75.26 110.06c0,-3.18 -2.25,-7.05 -5.01,-8.65 -1.56,-0.9 -2.96,-0.89 -3.88,-0.13 -0.35,0.12 -0.67,0.32 -0.93,0.59 -1.18,0.37 -1.94,1.57 -1.94,3.42 0,3.18 2.24,7.05 5.01,8.65 1.67,0.97 3.15,0.88 4.06,-0.04 0.3,-0.09 0.57,-0.24 0.81,-0.43 1.15,-0.39 1.88,-1.59 1.88,-3.4z"/>
  <path class="fil8" d="M72.61 111.62c0,-3.18 -2.24,-7.05 -5.01,-8.65 -2.77,-1.6 -5.01,-0.32 -5.01,2.86 0,3.18 2.24,7.05 5.01,8.65 2.77,1.6 5.01,0.32 5.01,-2.86z"/>
  <path class="fil9" d="M70.97 110.66c0,-2.11 -1.5,-4.69 -3.34,-5.76 -1.84,-1.06 -3.34,-0.21 -3.34,1.9 0,2.12 1.49,4.69 3.34,5.76 1.84,1.06 3.34,0.21 3.34,-1.9z"/>
  <path class="fil7" d="M68.27 105.98c0,-0.41 -0.2,-0.86 -0.44,-1 -0.24,-0.14 -0.44,0.08 -0.44,0.49 0,0.41 0.19,0.86 0.44,1 0.24,0.14 0.44,-0.08 0.44,-0.49z"/>
  <path class="fil7" d="M68.27 111.7c0,-0.41 -0.2,-0.86 -0.44,-1 -0.24,-0.14 -0.44,0.08 -0.44,0.49 0,0.41 0.19,0.86 0.44,1 0.24,0.14 0.44,-0.08 0.44,-0.49z"/>
  <path class="fil7" d="M70.32 110.53c0.35,0.21 0.64,0.15 0.64,-0.13 0,-0.28 -0.29,-0.67 -0.64,-0.88 -0.36,-0.21 -0.65,-0.15 -0.65,0.13 0,0.28 0.29,0.67 0.65,0.88z"/>
  <path class="fil7" d="M65.34 107.65c0.36,0.21 0.64,0.15 0.64,-0.13 0,-0.28 -0.29,-0.67 -0.64,-0.88 -0.36,-0.2 -0.65,-0.15 -0.65,0.13 0,0.28 0.29,0.67 0.65,0.88z"/>
  <path class="fil7" d="M69.28 111.8c0.25,0.44 0.6,0.71 0.77,0.61 0.17,-0.1 0.11,-0.53 -0.15,-0.97 -0.25,-0.44 -0.59,-0.71 -0.77,-0.61 -0.17,0.1 -0.11,0.53 0.15,0.97z"/>
  <path class="fil7" d="M65.76 105.73c0.25,0.44 0.59,0.71 0.77,0.61 0.17,-0.1 0.1,-0.53 -0.15,-0.97 -0.25,-0.44 -0.6,-0.71 -0.77,-0.61 -0.17,0.1 -0.1,0.53 0.15,0.97z"/>
  <path class="fil7" d="M65.76 109.05c-0.25,0.14 -0.32,0.5 -0.15,0.8 0.17,0.3 0.52,0.42 0.77,0.28 0.25,-0.14 0.32,-0.5 0.15,-0.8 -0.17,-0.3 -0.52,-0.42 -0.77,-0.28z"/>
  <path class="fil7" d="M69.28 107.05c-0.25,0.14 -0.32,0.5 -0.14,0.8 0.17,0.3 0.52,0.42 0.77,0.28 0.25,-0.15 0.32,-0.5 0.15,-0.8 -0.17,-0.3 -0.52,-0.42 -0.77,-0.27z"/>
  <path class="fil8" d="M69.26 109.42c0,-0.91 -0.64,-2.03 -1.44,-2.49 -0.8,-0.46 -1.44,-0.09 -1.44,0.82 0,0.91 0.65,2.03 1.44,2.49 0.79,0.46 1.44,0.09 1.44,-0.82z"/>
  <path class="fil10" d="M68.8 109.53c0,-0.82 -0.58,-1.81 -1.29,-2.22 -0.71,-0.41 -1.29,-0.08 -1.29,0.74 0,0.82 0.58,1.81 1.29,2.22 0.71,0.41 1.29,0.08 1.29,-0.73z"/>
  <path class="fil16" d="M76.75 77.16l-18.99 -10.96 0 34.12 5 2.89c0.42,-2.75 2.8,-3.68 5.66,-2.02 2.87,1.66 5.24,5.32 5.67,8.56l7.6 4.39 2.58 -10.26 0 -2.33 -7.53 -24.39z"/>
  <polygon class="fil13" points="76.75,77.16 57.76,66.19 57.76,86.24 84.27,101.54 "/>
  <path class="fil24" d="M76.86 80.66c-0.2,-0.64 -0.67,-1.26 -1.19,-1.56l-7.24 -4.18c-0.73,-0.42 -1.32,-0.11 -1.32,0.68l0 13.21c0,0.8 0.59,1.79 1.32,2.21l12.88 7.44c0.29,0.17 0.56,0.17 0.73,-0.01 0.16,-0.17 0.19,-0.49 0.08,-0.85l-5.25 -16.94z"/>
  <polygon class="fil25" points="112.83,95.62 82.62,113.09 81.86,115.4 112.07,97.94 "/>
  <polygon class="fil2" points="82.67,113.13 79.49,111.34 79.49,114.01 81.88,115.39 "/>
  <path class="fil2" d="M62.86 103.23c0.43,-2.65 2.72,-3.55 5.48,-1.96 2.76,1.59 6.32,6.35 6.75,9.5l0.48 -0.2c-0.45,-4.23 -3.51,-9.07 -7.23,-11.22 -3.72,-2.15 -6.79,-0.85 -7.23,2.86l1.32 1.29 0.44 -0.27z"/>
  <path class="fil13" d="M62.4 103.46c0.43,-2.66 2.72,-3.55 5.47,-1.96 2.76,1.59 5.05,5.13 5.47,8.28l1.76 1.02c-0.45,-4.23 -3.51,-9.07 -7.23,-11.22 -3.72,-2.15 -6.79,-0.85 -7.23,2.87l1.76 1.01z"/>
  <polygon class="fil26" points="65.23,73.07 59.26,69.63 59.26,85.53 65.23,88.97 "/>
  <polygon class="fil16" points="64.54,74.28 59.18,71.19 59.18,85.46 64.54,88.55 "/>
  <polygon class="fil18" points="64.31,74.53 59.15,71.55 59.15,85.3 64.31,88.28 "/>
  <polygon class="fil20" points="82.14,27.05 49.67,45.68 50.34,49.57 83.57,30.27 "/>
  <polygon class="fil16" points="72.05,66.71 63.27,58.74 63.27,63.01 72.53,68.37 "/>
  <polygon class="fil21" points="89,56.93 72.1,66.67 72.51,68.36 89.41,58.62 "/>
  <polygon class="fil27" points="79.78,103.78 78.17,102.91 78.17,103.83 79.78,104.7 "/>
  <path class="fil28" d="M76.75 81.02c-0.18,-0.6 -0.62,-1.16 -1.1,-1.44l-6.68 -3.85c-0.67,-0.39 -1.22,-0.11 -1.22,0.63l0 12.17c0,0.74 0.55,1.65 1.22,2.04l11.87 6.86c0.27,0.16 0.52,0.15 0.67,-0 0.15,-0.16 0.18,-0.45 0.08,-0.78l-4.84 -15.61z"/>
  <polygon class="fil1" points="104.07,66.48 79.14,80.65 84.72,98.15 109.65,83.99 "/>
  <path class="fil29" d="M96.14 75.45l11.87 6.86c0.27,0.16 0.52,0.15 0.67,-0 0.15,-0.16 0.18,-0.45 0.07,-0.78l-3.65 -11.75 -1.05 -3.28 -9.14 5.2 0 1.74c0,0.74 0.55,1.65 1.22,2.04z"/>
  <polygon class="fil30" points="84.33,102.97 57.78,88.5 57.92,89.52 84.33,104.02 "/>
  <path class="fil26" d="M87.77 106.18c0,-1.08 -0.76,-1.51 -1.7,-0.97 -0.94,0.54 -1.7,1.85 -1.7,2.93 0,1.08 0.76,1.51 1.7,0.97 0.94,-0.54 1.7,-1.86 1.7,-2.93z"/>
  <path class="fil26" d="M90.42 104.65c0,-0.65 -0.46,-0.91 -1.03,-0.59 -0.57,0.33 -1.03,1.12 -1.03,1.77 0,0.65 0.46,0.91 1.03,0.59 0.57,-0.33 1.03,-1.12 1.03,-1.77z"/>
  <path class="fil13" d="M87.54 106.55c0,-0.78 -0.55,-1.1 -1.24,-0.7 -0.68,0.4 -1.23,1.35 -1.23,2.13 0,0.78 0.55,1.1 1.24,0.7 0.68,-0.4 1.23,-1.35 1.23,-2.13z"/>
  <path class="fil2" d="M86.53 106.82c0,-0.39 -0.28,-0.55 -0.62,-0.35 -0.34,0.2 -0.62,0.67 -0.62,1.06 0,0.39 0.27,0.55 0.62,0.35 0.34,-0.2 0.62,-0.67 0.62,-1.06z"/>
  <path class="fil26" d="M110.22 93.12c0,-1.08 -0.76,-1.51 -1.7,-0.97 -0.94,0.54 -1.7,1.85 -1.7,2.93 0,1.08 0.76,1.51 1.7,0.97 0.94,-0.54 1.7,-1.86 1.7,-2.93z"/>
  <path class="fil13" d="M109.99 93.49c0,-0.78 -0.55,-1.1 -1.24,-0.7 -0.68,0.4 -1.23,1.35 -1.23,2.13 0,0.78 0.55,1.1 1.23,0.7 0.68,-0.39 1.24,-1.35 1.23,-2.13z"/>
  <path class="fil2" d="M108.98 93.76c0,-0.39 -0.28,-0.55 -0.62,-0.35 -0.34,0.2 -0.62,0.67 -0.62,1.06 0,0.39 0.28,0.55 0.62,0.35 0.34,-0.2 0.62,-0.67 0.62,-1.07z"/>
  <path class="fil13" d="M90.28 104.86c0,-0.47 -0.33,-0.66 -0.74,-0.42 -0.41,0.24 -0.74,0.81 -0.74,1.28 -0,0.47 0.33,0.66 0.74,0.42 0.41,-0.24 0.74,-0.81 0.74,-1.28z"/>
  <path class="fil2" d="M89.67 105.02c0,-0.23 -0.16,-0.33 -0.37,-0.21 -0.2,0.12 -0.37,0.41 -0.37,0.64 -0,0.24 0.17,0.33 0.37,0.21 0.2,-0.12 0.37,-0.4 0.37,-0.64z"/>
  <path class="fil26" d="M106.4 95.34c0,-0.65 -0.46,-0.91 -1.03,-0.58 -0.57,0.33 -1.03,1.12 -1.03,1.77 0,0.65 0.46,0.92 1.03,0.59 0.57,-0.33 1.03,-1.12 1.03,-1.78z"/>
  <path class="fil13" d="M106.26 95.56c0,-0.47 -0.33,-0.66 -0.74,-0.42 -0.41,0.23 -0.75,0.81 -0.75,1.28 0,0.47 0.33,0.66 0.74,0.42 0.41,-0.24 0.74,-0.81 0.74,-1.28z"/>
  <path class="fil2" d="M105.65 95.72c0,-0.23 -0.16,-0.33 -0.37,-0.21 -0.21,0.12 -0.37,0.41 -0.37,0.64 0,0.24 0.17,0.33 0.37,0.21 0.2,-0.12 0.37,-0.41 0.37,-0.64z"/>
  <path class="fil13" d="M76.8 87.77l-0.14 -0.25 -0.29 0 -1.45 0.84c-0.37,0.21 -0.59,0.6 -0.59,1.02l0 3.75 0.16 0.27 0.31 0 1.81 -1.04 0.19 -0.34 0 -4.25z"/>
  <path class="fil7" d="M77.06 87.89l-0.15 -0.25 -0.29 0 -1.45 0.84c-0.37,0.21 -0.59,0.6 -0.59,1.02l0 3.75 0.16 0.27 0.32 0 1.8 -1.04 0.19 -0.34 0 -4.25z"/>
  <path class="fil7" d="M76.28 88.22l-0.35 0c0,-1.82 0.28,-2.49 2.13,-3.41l0.16 0.31c-1.71,0.86 -1.94,1.4 -1.94,3.1z"/>
  <polygon class="fil17" points="95.81,73.84 91.45,76.18 91.63,78.4 95.99,76.06 "/>
  <polygon class="fil17" points="93.47,72.08 93.2,72.35 93.2,75.46 93.47,75.19 "/>
  <polygon class="fil17" points="92.98,85.74 92.67,85.7 92.06,94.86 92.51,94.75 "/>
  <polygon class="fil17" points="92.36,83.81 92.01,83.96 94.29,90.26 94.64,90.11 "/>
  <polygon class="fil17" points="97.47,82.84 97.71,82.68 102.83,89.54 102.4,89.66 "/>
  <polygon class="fil17" points="97.02,81.06 97.39,81.02 98.65,86.97 98.28,87.02 "/>
  <polygon class="fil31" points="103.42,94.88 92.63,101.14 91.5,106.34 102.29,100.07 "/>
  <polygon class="fil13" points="98.23,97.7 97.8,97.63 96.81,103.53 97.24,103.6 "/>
  <polygon class="fil13" points="99.03,96.86 97.29,97.82 96.9,100.26 98.64,99.3 "/>
  <polygon class="fil31" points="98.63,97.49 97.54,98.09 97.3,99.62 98.38,99.02 "/>
 </g>
</svg>
